<svg xmlns="http://www.w3.org/2000/svg" viewBox="0 0 831.67 165.5"><defs><style>.cls-1{fill:#fff;}</style></defs><title>HSF_Logo_CSBP_EN_White</title><g id="Layer_1" data-name="Layer 1"><path class="cls-1" d="M142.46,36.7c-14.72-14.16-38.49-12.87-53.55.75C73.84,23.83,50.07,22.54,35.35,36.7c-7.24,7-11.24,18.21-11.24,28.12,0,40.59,61.29,73.8,64.8,73.8s64.8-33.21,64.8-73.8C153.71,55.34,150,43.91,142.46,36.7Z"/><polygon class="cls-1" points="173.61 138.53 139.03 138.53 201.67 29.94 236.25 29.94 173.61 138.53"/><path class="cls-1" d="M142.46,36.7c-14.72-14.16-38.49-12.87-53.55.75C73.84,23.83,50.07,22.54,35.35,36.7c-7.24,7-11.24,18.21-11.24,28.12,0,40.59,61.29,73.8,64.8,73.8s64.8-33.21,64.8-73.8C153.71,55.34,150,43.91,142.46,36.7Z"/><polygon class="cls-1" points="173.61 138.53 139.03 138.53 201.67 29.94 236.25 29.94 173.61 138.53"/><path class="cls-1" d="M183.82,133.11h-2v-.5h4.54v.5h-2v5.42h-.55Z"/><path class="cls-1" d="M186.88,132.61h.76l2,5.16h0l2-5.16h.77v5.92h-.53v-5.16h0l-.28.81-1.71,4.35h-.49l-1.73-4.35c-.12-.31-.29-.81-.29-.81h0v5.16h-.52Z"/></g><g id="Layer_3" data-name="Layer 3"><path class="cls-1" d="M235.24,66.34c0-12,8.23-20.89,20.27-20.89a19.76,19.76,0,0,1,11.2,3.13A16.75,16.75,0,0,1,273.76,61h-11.7a6.59,6.59,0,0,0-6.72-5.93c-5.55,0-8.23,4.7-8.23,11.26s3.13,11.25,8.34,11.25a6.65,6.65,0,0,0,6.95-6.27h11.81A17.23,17.23,0,0,1,269,82.41c-3.41,3.3-7.67,4.76-13.49,4.76C243.3,87.17,235.24,78.32,235.24,66.34Z"/><path class="cls-1" d="M292.41,83.08h-.11c-1.91,2.63-4.93,3.86-8.63,3.86-5.48,0-9.51-3-9.51-8.56,0-6.33,4.87-8.18,10.35-8.8,6.05-.67,7.68-1.4,7.68-3.19,0-1.57-.73-2.74-3-2.74a3.51,3.51,0,0,0-3.75,3.41h-10c.22-5.65,4.59-10.3,13.55-10.3,4.37,0,7.17.56,9.35,1.9,3,1.85,4.42,4.76,4.42,8.57V81.51c0,2.41.17,3.7,1.07,4.26v.44H293.36A8.2,8.2,0,0,1,292.41,83.08Zm.06-7.23V73.34a17.57,17.57,0,0,1-4.09,1.34c-3.08.67-4,1.57-4,3.25,0,1.9,1.57,2.74,3.3,2.74A4.49,4.49,0,0,0,292.47,75.85Z"/><path class="cls-1" d="M315.71,61.58h.16a10.75,10.75,0,0,1,9.19-4.82c6.61,0,10,4.42,10,11V86.21H324.5V70.31c0-3-1.23-4.93-4-4.93s-4.31,2.36-4.31,5.43v15.4H305.63V57.66h10.08Z"/><path class="cls-1" d="M354.51,83.08h-.11c-1.9,2.63-4.93,3.86-8.62,3.86-5.49,0-9.52-3-9.52-8.56,0-6.33,4.87-8.18,10.36-8.8,6.05-.67,7.67-1.4,7.67-3.19,0-1.57-.73-2.74-3-2.74a3.51,3.51,0,0,0-3.76,3.41h-10c.22-5.65,4.59-10.3,13.55-10.3,4.37,0,7.17.56,9.35,1.9,3,1.85,4.43,4.76,4.43,8.57V81.51c0,2.41.17,3.7,1.06,4.26v.44H355.47A8.36,8.36,0,0,1,354.51,83.08Zm.06-7.23V73.34a17.57,17.57,0,0,1-4.09,1.34c-3.08.67-4,1.57-4,3.25,0,1.9,1.57,2.74,3.3,2.74A4.49,4.49,0,0,0,354.57,75.85Z"/><path class="cls-1" d="M366.55,71.88c0-9,5.16-15.12,12.77-15.12a8.84,8.84,0,0,1,7.95,3.92h.17V46.17H398v40H388v-4h-.12a9.44,9.44,0,0,1-8.4,4.93C372,87.17,366.55,81.73,366.55,71.88Zm21.17-.17c0-4.09-2.13-7.33-5.26-7.33s-5.15,3-5.15,7.33,2,7.45,5.15,7.45S387.72,75.85,387.72,71.71Z"/><path class="cls-1" d="M400.71,46.17H411.3v8H400.71Zm0,11.49H411.3V86.21H400.71Z"/><path class="cls-1" d="M431,83.08h-.11c-1.9,2.63-4.93,3.86-8.62,3.86-5.49,0-9.52-3-9.52-8.56,0-6.33,4.87-8.18,10.36-8.8,6.05-.67,7.67-1.4,7.67-3.19,0-1.57-.73-2.74-3-2.74A3.51,3.51,0,0,0,424,67.06h-10c.22-5.65,4.59-10.3,13.55-10.3,4.37,0,7.17.56,9.35,1.9,3,1.85,4.43,4.76,4.43,8.57V81.51c0,2.41.16,3.7,1.06,4.26v.44H431.91A8.18,8.18,0,0,1,431,83.08Zm.06-7.23V73.34a17.57,17.57,0,0,1-4.09,1.34c-3.08.67-4,1.57-4,3.25,0,1.9,1.57,2.74,3.3,2.74A4.49,4.49,0,0,0,431,75.85Z"/><path class="cls-1" d="M454.25,61.58h.17a10.72,10.72,0,0,1,9.18-4.82c6.61,0,10,4.42,10,11V86.21H463V70.31c0-3-1.23-4.93-4-4.93s-4.32,2.36-4.32,5.43v15.4H444.17V57.66h10.08Z"/><path class="cls-1" d="M481.74,73.45h12c.39,3.19,2.85,4.7,6.72,4.7,2.29,0,5.09-.9,5.09-3.3s-2.68-3-7.61-4.26c-6.72-1.68-14.84-4-14.84-12.49,0-9.18,7.5-12.65,16.52-12.65,8.29,0,15.9,3.47,16.07,12.21H504.09c-.34-2.19-1.91-3.59-5.1-3.59-2.57,0-4.37,1.18-4.37,2.8,0,2.35,3.42,2.69,9.41,4.14,6.72,1.63,13.44,4.26,13.44,12.77,0,8.74-7.78,13.39-17.25,13.39C489.81,87.17,481.91,82.69,481.74,73.45Z"/><path class="cls-1" d="M517,57.66h3.69V48.42H531v9.24h5.44V64H531V75.63c0,2.86,2,2.91,5.32,2.69V86.1a21.24,21.24,0,0,1-5.2.67c-6.95,0-10.48-2-10.48-8.79V64H517Z"/><path class="cls-1" d="M548.16,62h.17c2.29-3.59,5-4.93,8.68-4.93a4,4,0,0,1,1.73.28v9h-.22c-6.22-1.07-9.86,1.73-9.86,8.17v11.7H538.08V57.66h10.08Z"/><path class="cls-1" d="M558.69,72c0-8.68,6.16-15.17,15.68-15.17S589.94,63.31,589.94,72s-6.05,15.12-15.57,15.12S558.69,80.67,558.69,72Zm20.49,0c0-4.82-1.68-8.06-4.93-8.06s-4.81,3.24-4.81,8.06,1.57,8.06,4.81,8.06S579.18,76.81,579.18,72Z"/><path class="cls-1" d="M604.05,76l-2.19,2.41v7.83H591.45v-40h10.41v20l6.89-8.51h11.87L611.1,68.18l10.64,18h-12Z"/><path class="cls-1" d="M618.78,71.88c0-8.63,6.21-15.18,15.23-15.18a15,15,0,0,1,10.53,3.87c3.47,3.19,5.09,8.28,5,13.94H629.13c.62,3.3,2.41,5.32,5.61,5.32a4.22,4.22,0,0,0,4-2.13H649a12,12,0,0,1-5.43,6.89A16.12,16.12,0,0,1,634.4,87C625.05,87,618.78,80.62,618.78,71.88Zm10.35-3H639c-.45-3.19-2.24-5.1-4.76-5.1C631.32,63.81,629.7,65.78,629.13,68.91Z"/><path class="cls-1" d="M236.8,98.17h20.72c3.92,0,6.84,1,9,2.58a9.66,9.66,0,0,1,3.81,7.9,7.57,7.57,0,0,1-5,7.67v.17a9.71,9.71,0,0,1,6.89,9.63,11.18,11.18,0,0,1-4.6,9.58c-2.4,1.68-5.54,2.51-9.68,2.51H236.8Zm18.76,15.57c2.24,0,3.76-1.06,3.76-3.19s-1.57-3.3-3.81-3.3h-7.23v6.49ZM256.63,129c2.52,0,4.25-1.51,4.25-3.92,0-2.57-1.9-3.86-4.31-3.86h-8.29V129Z"/><path class="cls-1" d="M272.92,123.88c0-8.63,6.22-15.18,15.23-15.18a15,15,0,0,1,10.53,3.87c3.47,3.19,5.1,8.28,5,13.94H283.28c.62,3.3,2.41,5.32,5.6,5.32a4.23,4.23,0,0,0,4-2.13h10.25a12,12,0,0,1-5.44,6.89,16.08,16.08,0,0,1-9.12,2.41C279.19,139,272.92,132.62,272.92,123.88Zm10.36-3h9.86c-.45-3.19-2.24-5.1-4.76-5.1C285.47,115.81,283.84,117.78,283.28,120.91Z"/><path class="cls-1" d="M303.5,129h10.13c.17,2.36,1.63,3.76,4.32,3.76,2.07,0,3.64-.73,3.64-2.47,0-2.35-3.31-2.63-7-3.19-4.82-.73-10.36-2-10.36-9.18,0-5.88,6-9.13,13-9.13,8.68,0,13.21,3.25,13.61,8.85h-10c-.28-2.13-1.85-2.58-3.59-2.58-1.56,0-3,.62-3,2.07,0,1.63,2.63,2,5.88,2.41,5.21.73,11.82,1.91,11.82,9.86,0,6.83-6.22,9.8-14.06,9.8C309.43,139.17,303.55,135.53,303.5,129Z"/><path class="cls-1" d="M331,109.66h3.7v-9.24h10.36v9.24h5.43V116h-5.43v11.59c0,2.86,2,2.91,5.32,2.69v7.78a21.26,21.26,0,0,1-5.21.67c-6.94,0-10.47-2-10.47-8.79V116H331Z"/><path class="cls-1" d="M359.83,98.17h18.43c5.09,0,8.79,1.35,11.42,3.7a13.66,13.66,0,0,1,4.48,10.59c0,7.72-5.71,13.55-13.78,13.55h-8.84v12.2H359.83Zm11.71,18.76h6.33a4.37,4.37,0,0,0,4.64-4.64c0-2.69-1.73-4.43-4.76-4.43h-6.21Z"/><path class="cls-1" d="M405.58,114h.17c2.3-3.59,5-4.93,8.68-4.93a4.07,4.07,0,0,1,1.74.28v9h-.23c-6.21-1.07-9.85,1.73-9.85,8.17v11.7H395.5V109.66h10.08Z"/><path class="cls-1" d="M434,135.08h-.12c-1.9,2.63-4.92,3.86-8.62,3.86-5.49,0-9.52-3-9.52-8.56,0-6.33,4.87-8.18,10.36-8.8,6.05-.67,7.67-1.4,7.67-3.19,0-1.57-.73-2.74-3-2.74a3.5,3.5,0,0,0-3.75,3.41H417c.23-5.65,4.59-10.3,13.55-10.3,4.37,0,7.17.56,9.36,1.9,3,1.85,4.42,4.76,4.42,8.57v14.28c0,2.41.17,3.7,1.06,4.26v.44H434.93A8.2,8.2,0,0,1,434,135.08Zm0-7.23v-2.51a17.41,17.41,0,0,1-4.09,1.34c-3.08.67-4,1.57-4,3.25,0,1.9,1.57,2.74,3.31,2.74A4.48,4.48,0,0,0,434,127.85Z"/><path class="cls-1" d="M446,124c0-8.68,6.28-15.17,15.68-15.17,8.07,0,13.44,4.76,14.17,11.42H465.67c-.56-2.58-1.79-4-4.09-4-3.25,0-4.81,3-4.81,7.78s1.68,7.67,4.92,7.67c2.58,0,3.87-1.73,4.15-5H476c0,7-5.77,12.43-14.34,12.43C452.29,139.11,446,132.67,446,124Z"/><path class="cls-1" d="M475.86,109.66h3.7v-9.24h10.36v9.24h5.43V116h-5.43v11.59c0,2.86,2,2.91,5.32,2.69v7.78a21.39,21.39,0,0,1-5.21.67c-6.94,0-10.47-2-10.47-8.79V116h-3.7Z"/><path class="cls-1" d="M497,98.17h10.59v8H497Zm0,11.49h10.59v28.55H497Z"/><path class="cls-1" d="M509.07,124c0-8.68,6.27-15.17,15.68-15.17,8.06,0,13.44,4.76,14.17,11.42H528.73c-.56-2.58-1.8-4-4.09-4-3.25,0-4.82,3-4.82,7.78s1.68,7.67,4.93,7.67c2.58,0,3.86-1.73,4.14-5h10.2c0,7-5.77,12.43-14.34,12.43C515.34,139.11,509.07,132.67,509.07,124Z"/><path class="cls-1" d="M539.25,123.88c0-8.63,6.22-15.18,15.24-15.18A14.93,14.93,0,0,1,565,112.57c3.48,3.19,5.1,8.28,5,13.94H549.61c.62,3.3,2.41,5.32,5.6,5.32a4.22,4.22,0,0,0,4-2.13h10.25a12,12,0,0,1-5.43,6.89,16.14,16.14,0,0,1-9.13,2.41C545.53,139,539.25,132.62,539.25,123.88Zm10.36-3h9.86c-.45-3.19-2.24-5.1-4.76-5.1C551.8,115.81,550.17,117.78,549.61,120.91Z"/><path class="cls-1" d="M569.83,129H580c.17,2.36,1.63,3.76,4.32,3.76,2.07,0,3.64-.73,3.64-2.47,0-2.35-3.31-2.63-7-3.19-4.82-.73-10.36-2-10.36-9.18,0-5.88,6-9.13,13-9.13,8.68,0,13.21,3.25,13.61,8.85h-10c-.28-2.13-1.85-2.58-3.58-2.58-1.57,0-3,.62-3,2.07,0,1.63,2.63,2,5.88,2.41,5.21.73,11.82,1.91,11.82,9.86,0,6.83-6.22,9.8-14.06,9.8C575.77,139.17,569.88,135.53,569.83,129Z"/></g></svg>